<?xml version="1.0" encoding="UTF-8" standalone="no"?>
<svg width="535px" height="304px" viewBox="0 0 535 304" version="1.1" xmlns="http://www.w3.org/2000/svg" xmlns:xlink="http://www.w3.org/1999/xlink">
    <!-- Generator: Sketch 43.2 (39069) - http://www.bohemiancoding.com/sketch -->
    <title>ux illustration</title>
    <desc>Created with Sketch.</desc>
    <defs>
        <polygon id="path-1" points="517 0.00149333333 517 34.9123081 0.000833870968 34.9123081 0.000833870968 0.00149333333"></polygon>
    </defs>
    <g id="Page-1" stroke="none" stroke-width="1" fill="none" fill-rule="evenodd">
        <g id="Design" transform="translate(-444.000000, -3028.000000)">
            <g id="ux-illustration" transform="translate(444.000000, 3028.000000)">
                <g id="Page-1" stroke-width="1" fill-rule="evenodd" transform="translate(18.000000, 269.000000)">
                    <mask id="mask-2" fill="white">
                        <use xlink:href="#path-1"></use>
                    </mask>
                    <g id="Clip-2"></g>
                    <path d="M0.000833870968,17.4569007 C0.000833870968,27.097197 115.733785,34.9123081 258.500834,34.9123081 C401.267882,34.9123081 517.000834,27.097197 517.000834,17.4569007 C517.000834,7.81660444 401.267882,0.00149333333 258.500834,0.00149333333 C115.733785,0.00149333333 0.000833870968,7.81660444 0.000833870968,17.4569007" id="Fill-1" fill="#EAF1FB" mask="url(#mask-2)"></path>
                </g>
                <g id="User-Experience" transform="translate(21.000000, 66.000000)">
                    <path d="M413.898093,63.8154402 C413.898093,63.8154402 424.73486,50.9646699 434.78387,60.1694174 C450.845142,74.8786582 434.518563,84.5026566 434.518563,84.5026566 L426.126701,72.0627939 L413.898093,63.8154402 Z" id="Stroke-12" stroke="#143A6B" stroke-width="2" fill="#EAF1FB" fill-rule="evenodd"></path>
                    <polyline id="Stroke-13" stroke="#143A6B" stroke-width="2" points="440.428785 79.7926107 496.475891 133.279432 475.428889 206.738031"></polyline>
                    <path d="M436.34714,61.7947526 C436.34714,61.7947526 445.428799,57.6898482 456.39822,68.3797034 C467.36764,79.0695586 460.99007,113.825667 470.173771,123.303658 C479.357472,132.779563 507.673883,139.297767 508.694294,159.895293 C509.714706,180.492819 483.184014,198.483063 481.143192,206.04418" id="Stroke-14" stroke="#143A6B" stroke-width="2"></path>
                    <path d="M369,79.9028648 L419.255252,132.0485 C419.255252,132.0485 452.630862,102.967922 429.459364,74.9490294 C403.367449,43.4009202 369,79.9028648 369,79.9028648 Z" id="Stroke-8" stroke="#143A6B" stroke-width="2" fill="#94B2D7" fill-rule="evenodd"></path>
                    <path d="M434.455322,84.9178467 C432.323364,80.0767822 423.814209,64.2640381 406.041382,63.1177979 C388.268555,61.9715576 370.350174,79.8513129 370.40448,79.9073944 C370.458786,79.9634759 404.338257,49.0947266 434.455322,84.9178467 Z" id="Page-1" fill="#B7CEEA" fill-rule="evenodd"></path>
                    <path d="M382.017377,78.5491638 C382.292377,79.9701638 385.76071,80.4286638 389.762377,79.5746638 C393.76571,78.7206638 396.787377,76.8761638 396.512377,75.4551638 C396.237377,74.0341638 392.769043,73.5756638 388.767377,74.4296638 C384.764043,75.2836638 381.742377,77.1281638 382.017377,78.5491638" id="Fill-1" fill="#B7CDEA" fill-rule="evenodd"></path>
                    <path d="M434.455322,84.9178467 C432.323364,80.0767822 423.814209,64.2640381 406.041382,63.1177979 C388.268555,61.9715576 370.350174,79.8513129 370.40448,79.9073944 C370.458786,79.9634759 404.338257,49.0947266 434.455322,84.9178467 Z" id="Page-1" fill="#B7CDEA" fill-rule="evenodd"></path>
                    <path d="M377.16329,73.5351345 L426.775683,124.418845" id="Stroke-9" stroke="#143A6B" stroke-width="2"></path>
                    <polygon id="Stroke-15" stroke="#143A6B" stroke-width="2" fill="#94B2D7" fill-rule="evenodd" points="462.877831 218.5 488.643214 218.5 488.643214 207.02796 462.877831 207.02796"></polygon>
                    <polygon id="Stroke-15" fill="#B7CEEA" fill-rule="evenodd" points="463.889084 211 487.638794 211 487.638794 208.030411 463.889084 208.031509"></polygon>
                    <path d="M508.561644,132.849751 C508.561644,140.266947 502.679994,146.27621 495.42487,146.27621 C488.167706,146.27621 482.286055,140.266947 482.286055,132.849751 C482.286055,125.434642 488.167706,119.423293 495.42487,119.423293 C502.679994,119.423293 508.561644,125.434642 508.561644,132.849751 Z" id="Stroke-10" stroke="#143A6B" stroke-width="2" fill="#4183D7" fill-rule="evenodd"></path>
                    <path d="M500.269782,132.785091 C500.269782,135.557153 498.071817,137.803587 495.359564,137.803587 C492.647311,137.803587 490.449345,135.557153 490.449345,132.785091 C490.449345,130.013029 492.647311,127.766595 495.359564,127.766595 C498.071817,127.766595 500.269782,130.013029 500.269782,132.785091 Z" id="Stroke-11" stroke="#143A6B" stroke-width="2" fill="#EAF1FB" fill-rule="evenodd"></path>
                    <g id="Computer" stroke-width="1" fill-rule="evenodd" transform="translate(107.000000, 5.000000)">
                        <polygon id="Stroke-41" stroke="#143A6B" stroke-width="2" fill="#EAF1FB" points="90.01939 196.527145 156.276687 196.527145 156.276687 173.608824 90.01939 173.608824"></polygon>
                        <path d="M122.410756,196.527145 L71.0804134,196.527145 C64.5258293,196.527145 56.8819349,212.462511 57.9746493,212.462511 L188.305516,212.462511 C188.305516,212.462511 185.027373,196.527145 175.926526,196.527145 L122.410756,196.527145 Z" id="Stroke-43" stroke="#143A6B" stroke-width="2" fill="#C7DCFA" stroke-linecap="round" stroke-linejoin="round"></path>
                        <polygon id="Stroke-41" stroke="#143A6B" stroke-width="2" fill="#C7DCFA" points="90.01939 196.527145 156.276687 196.527145 156.276687 173.608824 90.01939 173.608824"></polygon>
                        <polygon id="Rectangle-9" fill="#94B2D7" points="91.0910494 174.680483 155.206125 174.680483 155.206125 180.395422 91.0910494 180.395422"></polygon>
                        <path d="M0,147.888998 L244.725979,147.888998" id="Stroke-3" stroke="#143A6B" stroke-width="2"></path>
                        <path d="M236.966344,173.235317 L7.75963577,173.235317 C3.47243701,173.235317 0,169.721358 0,165.382896 L0,7.85242115 C0,3.51613969 3.47243701,0 7.75963577,0 L236.966344,0 C241.251387,0 244.725979,3.51613969 244.725979,7.85242115 L244.725979,165.382896 C244.725979,169.721358 241.251387,173.235317 236.966344,173.235317 Z" id="Stroke-1" stroke="#143A6B" stroke-width="2" fill="#4183D7"></path>
                        <polygon id="Stroke-5" stroke="#143A6B" stroke-width="2" fill="#EAF1FB" points="8.57327524 141.226015 237.05144 141.226015 237.05144 10.716594 8.57327524 10.716594"></polygon>
                        <path d="M127.594215,160.317332 C127.594215,163.630617 124.94085,166.315709 121.666715,166.315709 C118.39258,166.315709 115.739216,163.630617 115.739216,160.317332 C115.739216,157.001865 118.39258,154.318954 121.666715,154.318954 C124.94085,154.318954 127.594215,157.001865 127.594215,160.317332 Z" id="Stroke-7" stroke="#143A6B" stroke-width="2" fill="#EAF1FB"></path>
                        <circle id="Oval-5" fill="#143A6B" cx="122.169172" cy="5.35829702" r="2.14331881"></circle>
                        <g id="Page-1" opacity="0.7" transform="translate(26.791485, 23.576507)">
                            <path d="M185.729332,18.2182099 L39.5641258,18.2182099 C37.5779167,18.2182099 35.9673689,16.4906949 35.9673689,14.360236 L35.9673689,4.39380356 C35.9673689,2.26334466 37.5779167,0.535829702 39.5641258,0.535829702 L185.729332,0.535829702 C187.715541,0.535829702 189.326088,2.26334466 189.326088,4.39380356 L189.326088,14.360236 C189.326088,16.4906949 187.715541,18.2182099 185.729332,18.2182099 Z" id="Stroke-1" stroke="#94B2D7" stroke-width="2" fill="#FFFFFF"></path>
                            <path d="M25.8369034,18.2182099 L4.09650626,18.2182099 C2.10929809,18.2182099 0.499749386,16.4906949 0.499749386,14.360236 L0.499749386,4.39380356 C0.499749386,2.26334466 2.10929809,0.535829702 4.09650626,0.535829702 L25.8369034,0.535829702 C27.8231125,0.535829702 29.4336603,2.26334466 29.4336603,4.39380356 L29.4336603,14.360236 C29.4336603,16.4906949 27.8231125,18.2182099 25.8369034,18.2182099 Z" id="Stroke-3" stroke="#94B2D7" stroke-width="2" fill="#FFFFFF"></path>
                            <polygon id="Stroke-5" stroke="#94B2D7" stroke-width="2" fill="#FFFFFF" points="0.499749386 105.022622 189.326088 105.022622 189.326088 30.0064633 0.499749386 30.0064633"></polygon>
                            <polygon id="Stroke-9" stroke="#94B2D7" stroke-width="2" fill="#EAF1FB" points="14.9667048 94.5739425 115.739216 94.5739425 115.739216 40.4551425 14.9667048 40.4551425"></polygon>
                            <path d="M132.885766,46.0813544 L176.260762,46.0813544" id="Stroke-11" stroke="#94B2D7" stroke-width="2" stroke-linecap="round"></path>
                            <path d="M132.885766,55.726289 L176.260762,55.726289" id="Stroke-12" stroke="#94B2D7" stroke-width="2" stroke-linecap="round"></path>
                            <path d="M132.885766,66.4428831 L176.260762,66.4428831" id="Stroke-13" stroke="#94B2D7" stroke-width="2" stroke-linecap="round"></path>
                            <path d="M129.047847,45.9034589 C129.047847,46.9879783 128.227586,47.8678106 127.215499,47.8678106 C126.204411,47.8678106 125.38415,46.9879783 125.38415,45.9034589 C125.38415,44.817868 126.204411,43.9380356 127.215499,43.9380356 C128.227586,43.9380356 129.047847,44.817868 129.047847,45.9034589 Z" id="Stroke-14" fill="#94B2D7"></path>
                            <path d="M129.047847,55.5473219 C129.047847,56.6329129 128.227586,57.5116736 127.215499,57.5116736 C126.204411,57.5116736 125.38415,56.6329129 125.38415,55.5473219 C125.38415,54.4617309 126.204411,53.5829702 127.215499,53.5829702 C128.227586,53.5829702 129.047847,54.4617309 129.047847,55.5473219 Z" id="Stroke-15" fill="#94B2D7"></path>
                            <path d="M129.047847,66.263916 C129.047847,67.3495069 128.227586,68.2293393 127.215499,68.2293393 C126.204411,68.2293393 125.38415,67.3495069 125.38415,66.263916 C125.38415,65.1793966 126.204411,64.2995643 127.215499,64.2995643 C128.227586,64.2995643 129.047847,65.1793966 129.047847,66.263916 Z" id="Stroke-16" fill="#94B2D7"></path>
                        </g>
                    </g>
                    <g id="Coffee" transform="translate(17.000000, 118.000000)" stroke-width="1" fill-rule="evenodd">
                        <g id="Group-3">
                            <polygon id="Stroke-1" stroke="#143A6B" stroke-width="2" fill="#C7DCFA" stroke-linecap="round" stroke-linejoin="round" points="8.88166014 5 10.6316601 0.5 58.1316601 0.5 59.8816601 5"></polygon>
                            <polygon id="Stroke-3" stroke="#143A6B" stroke-width="2" fill="#94B2D7" stroke-linecap="round" stroke-linejoin="round" points="3.88166014 5 64.3816601 5 67.8816601 16.25 62.6316601 20.75 5.63166014 20.75 0.131660142 15.5"></polygon>
                            <polygon id="Stroke-6" stroke="#143A6B" stroke-width="2" fill="#C7DCFA" stroke-linecap="round" stroke-linejoin="round" points="5.63166014 20.75 12.3816601 94.25 55.1316601 94.25 62.6316601 20.75"></polygon>
                            <polygon id="Page-1" fill="#EAF1FB" points="8.1784668 37 59.5 37 56.5 73.5 11.6557617 73.5"></polygon>
                            <polygon id="Stroke-15" fill="#94B2D7" points="8.8246426 21.7658691 61.5012207 21.7658691 54.5014648 93.3028564 44.1930637 93.3028564 51.3158707 24 6.90576172 24 6.66491699 21.7658691"></polygon>
                            <polygon id="Stroke-7" stroke="#143A6B" stroke-width="2" fill="#94B2D7" stroke-linecap="round" stroke-linejoin="round" points="16.1316601 100.75 52.1316601 100.75 52.1316601 94.25 16.1316601 94.25"></polygon>
                            <path d="M7.21516014,37 L47.3821601,37" id="Stroke-9" stroke="#143A6B" stroke-width="2" stroke-linecap="round" stroke-linejoin="round"></path>
                            <path d="M10.5164601,73 L27.2984601,73" id="Stroke-10" stroke="#143A6B" stroke-width="2" stroke-linecap="round" stroke-linejoin="round"></path>
                            <path d="M55.6316601,37 L60.8726601,37" id="Stroke-11" stroke="#143A6B" stroke-width="2" stroke-linecap="round" stroke-linejoin="round"></path>
                            <path d="M35.8816601,73 L57.2036601,73" id="Stroke-12" stroke="#143A6B" stroke-width="2" stroke-linecap="round" stroke-linejoin="round"></path>
                            <path d="M43.8816601,55.625 C43.8816601,60.526 39.9076601,64.5 35.0066601,64.5 C30.1056601,64.5 26.1316601,60.526 26.1316601,55.625 C26.1316601,50.724 30.1056601,46.75 35.0066601,46.75 C39.9076601,46.75 43.8816601,50.724 43.8816601,55.625 Z" id="Stroke-13" stroke="#143A6B" stroke-width="2" fill="#4183D7" stroke-linecap="round" stroke-linejoin="round"></path>
                            <polygon id="Stroke-17" fill="#C7DCFA" points="52.6390995 9.22128884 52.9646601 14.583 1.53381348 14.583 4.59942627 5.99060059 52.1502696 5.99060059"></polygon>
                        </g>
                    </g>
                </g>
                <polygon id="Fill-1" fill-opacity="0.454653533" fill="#94B2D7" fill-rule="evenodd" points="149.643 33 146.234 39.232 140 42.642 146.234 46.051 149.643 52.284 153.051 46.051 159.285 42.642 153.051 39.232"></polygon>
                <polygon id="Fill-1" fill="#94B2D7" fill-rule="evenodd" points="12.1431296 196.000259 7.85028208 203.848023 0 208.14213 7.85028208 212.434977 12.1431296 220.284 16.4347179 212.434977 24.285 208.14213 16.4347179 203.848023"></polygon>
                <polygon id="Fill-1" fill="#94B2D7" fill-rule="evenodd" points="336.643 0 333.234 6.232 327 9.642 333.234 13.051 336.643 19.284 340.051 13.051 346.285 9.642 340.051 6.232"></polygon>
                <polygon id="Fill-1" fill-opacity="0.454653533" fill="#94B2D7" fill-rule="evenodd" points="428.001763 225 421.991288 235.987762 411 242 421.991288 248.010475 428.001763 259 434.010475 248.010475 445.001763 242 434.010475 235.987762"></polygon>
                <path d="M274.5,38.25 C274.5,41.149 272.149,43.5 269.25,43.5 C266.351,43.5 264,41.149 264,38.25 C264,35.351 266.351,33 269.25,33 C272.149,33 274.5,35.351 274.5,38.25" id="Fill-2" fill="#94B2D7" fill-rule="evenodd"></path>
                <path d="M87.5,149.25 C87.5,152.149 85.149,154.5 82.25,154.5 C79.351,154.5 77,152.149 77,149.25 C77,146.351 79.351,144 82.25,144 C85.149,144 87.5,146.351 87.5,149.25" id="Fill-2" fill="#94B2D7" fill-rule="evenodd"></path>
            </g>
        </g>
    </g>
</svg>